<svg xmlns="http://www.w3.org/2000/svg" viewBox="0 0 60 36" width="60" height="36">
  <rect width="60" height="36" fill="#008A3D"/>
  <!-- red vertical stripe -->
  <rect x="0" y="0" width="10" height="36" fill="#C8102E"/>
  <!-- simplified gul motifs on red stripe -->
  <g transform="translate(1,4)" fill="#fff">
    <rect x="1" y="1" width="7" height="3" rx="1"/>
    <rect x="1" y="10" width="7" height="3" rx="1"/>
    <rect x="1" y="19" width="7" height="3" rx="1"/>
  </g>
  <!-- crescent and five stars cluster -->
    <g transform="translate(30,4)" fill="#fff">
      <!-- crescent made from two circles; positioned to the right of the red stripe and slightly down to match reference -->
      <g id="crescent-tm">
        <circle cx="14" cy="8" r="7" fill="#fff"/>
        <circle cx="17.6" cy="8" r="5.2" fill="#008A3D"/>
      </g>

      <!-- star template for Turkmen five-point stars -->
      <g id="star-tm">
        <polygon points="0,-1 0.224,-0.309 0.951,-0.309 0.363,0.118 0.588,0.809 0,0.382 -0.588,0.809 -0.363,0.118 -0.951,-0.309 -0.224,-0.309"/>
      </g>

      <!-- five stars arranged to mirror the reference (two upper-left, one upper-right, two lower-right) -->
      <use href="#star-tm" transform="translate(8,4) scale(2)"/>
      <use href="#star-tm" transform="translate(11.5,2.5) scale(2)"/>
      <use href="#star-tm" transform="translate(15.5,3) scale(2)"/>
      <use href="#star-tm" transform="translate(13,7) scale(2)"/>
      <use href="#star-tm" transform="translate(17,7.5) scale(2)"/>
    </g>
</svg>