<svg xmlns="http://www.w3.org/2000/svg" viewBox="0 0 60 36" width="60" height="36">
  <rect width="60" height="36" fill="#1EB1E9"/>
  <rect width="60" height="8" y="8" fill="#fff"/>
  <rect width="60" height="8" y="16" fill="#3CA64A"/>
  <rect width="60" height="0.9" y="8" fill="#DE2910"/>
  <rect width="60" height="0.9" y="15.1" fill="#DE2910"/>
  <!-- Canton: crescent and 12 five-point stars (arranged 3/4/5) -->
  <g transform="translate(2,2)" fill="#fff">
    <!-- crescent built from two circles for a crisp thin crescent, moved higher/left to match reference -->
    <g id="crescent">
      <circle cx="6" cy="6" r="6" fill="#fff"/>
      <circle cx="9.2" cy="6" r="4.6" fill="#1EB1E9"/>
    </g>

    <!-- star template (five-point star pointing up) -->
    <g id="star">
      <polygon points="0,-1 0.224,-0.309 0.951,-0.309 0.363,0.118 0.588,0.809 0,0.382 -0.588,0.809 -0.363,0.118 -0.951,-0.309 -0.224,-0.309"/>
    </g>

    <!-- place 12 stars in three rows: top 3, middle 4, bottom 5; positions tuned to match the screenshot proportions -->
    <g id="stars" transform="translate(12,-1)" fill="#fff">
      <!-- top row (3) -->
      <use href="#star" transform="translate(8,2) scale(1.5)"/>
      <use href="#star" transform="translate(14,2) scale(1.5)"/>
      <use href="#star" transform="translate(20,2) scale(1.5)"/>

      <!-- middle row (4) -->
      <use href="#star" transform="translate(6,6) scale(1.5)"/>
      <use href="#star" transform="translate(11.5,6) scale(1.5)"/>
      <use href="#star" transform="translate(17,6) scale(1.5)"/>
      <use href="#star" transform="translate(22.5,6) scale(1.5)"/>

      <!-- bottom row (5) -->
      <use href="#star" transform="translate(4,10) scale(1.5)"/>
      <use href="#star" transform="translate(9,10) scale(1.5)"/>
      <use href="#star" transform="translate(14,10) scale(1.5)"/>
      <use href="#star" transform="translate(19,10) scale(1.5)"/>
      <use href="#star" transform="translate(24,10) scale(1.5)"/>
    </g>
  </g>
</svg>